<svg width="117" height="141" viewBox="0 0 117 141" fill="none" xmlns="http://www.w3.org/2000/svg">
<ellipse cx="59.2354" cy="88.4187" rx="51.5537" ry="49.4478" stroke="#E2E2E2" stroke-width="5"/>
<path d="M45.7215 45.6723C41.4831 42.47 32.6108 35.0481 31.0285 30.9792C29.4461 26.9104 45.2506 32.863 53.3506 36.3479V37.3917C53.4406 28.5341 54.0759 14.8661 56.1761 8.37454C59.2843 -1.23246 73.1297 4.13616 72.282 8.37454C71.6038 11.7652 68.4203 29.7548 66.9134 38.3258C70.1157 35.3118 79.2329 29.623 90.0832 30.9792L76.8029 45.6723C79.4401 46.9909 85.7883 49.6281 90.0832 49.6281C88.0111 52.2653 81.0978 55.9574 70.0215 49.6281C68.232 53.3956 63.3531 61.0435 58.154 61.4956C56.5529 60.177 53.3506 56.7486 53.3506 53.5839C50.0541 55.656 42.6133 59.1786 39.2226 56.6921C39.411 54.3374 40.9746 48.837 45.7215 45.6723Z" fill="white"/>
<path d="M45.7215 45.6723C41.4831 42.47 32.6108 35.0481 31.0285 30.9793C29.4461 26.9104 45.2506 32.863 53.3506 36.3479V41.7165C53.2564 33.8048 53.6896 16.0601 56.1761 8.37454C59.2843 -1.23246 73.1297 4.13616 72.282 8.37454C71.6038 11.7652 68.4203 29.7548 66.9134 38.3258C70.1157 35.3118 79.2329 29.623 90.0832 30.9793L76.8029 45.6723C79.4401 46.9909 85.7883 49.6281 90.0832 49.6281C88.0111 52.2653 81.0978 55.9574 70.0215 49.6281C68.232 53.3956 63.3531 61.0435 58.154 61.4956C56.5529 60.177 53.3506 56.7486 53.3506 53.5839C50.0541 55.656 42.6133 59.1786 39.2226 56.6921C39.411 54.3374 40.9746 48.837 45.7215 45.6723Z" stroke="#E2E2E2" stroke-width="5" stroke-linejoin="round"/>
</svg>
