<svg width="117" height="141" viewBox="0 0 117 141" fill="none" xmlns="http://www.w3.org/2000/svg">
<ellipse cx="58.7246" cy="88.4187" rx="51.5537" ry="49.4478" stroke="#61B75A" stroke-width="5"/>
<path d="M45.2108 45.6723C40.9724 42.47 32.1 35.0481 30.5177 30.9792C28.9354 26.9104 44.7399 32.863 52.8399 36.3479V37.3917C52.9298 28.5341 53.5652 14.8661 55.6654 8.37454C58.7735 -1.23246 72.6189 4.13616 71.7712 8.37454C71.0931 11.7652 67.9096 29.7548 66.4026 38.3258C69.605 35.3118 78.7222 29.623 89.5724 30.9792L76.2922 45.6723C78.9294 46.9909 85.2775 49.6281 89.5724 49.6281C87.5003 52.2653 80.5871 55.9574 69.5108 49.6281C67.7212 53.3956 62.8424 61.0435 57.6433 61.4956C56.0422 60.177 52.8399 56.7486 52.8399 53.5839C49.5433 55.656 42.1026 59.1786 38.7119 56.6921C38.9003 54.3374 40.4638 48.837 45.2108 45.6723Z" fill="white"/>
<path d="M45.2108 45.6723C40.9724 42.47 32.1 35.0481 30.5177 30.9793C28.9354 26.9104 44.7399 32.863 52.8399 36.3479V41.7165C52.7457 33.8048 53.1789 16.0601 55.6654 8.37454C58.7735 -1.23246 72.6189 4.13616 71.7712 8.37454C71.0931 11.7652 67.9096 29.7548 66.4026 38.3258C69.605 35.3118 78.7222 29.623 89.5724 30.9793L76.2922 45.6723C78.9294 46.9909 85.2775 49.6281 89.5724 49.6281C87.5003 52.2653 80.5871 55.9574 69.5108 49.6281C67.7212 53.3956 62.8424 61.0435 57.6433 61.4956C56.0422 60.177 52.8399 56.7486 52.8399 53.5839C49.5433 55.656 42.1026 59.1786 38.7119 56.6921C38.9003 54.3374 40.4638 48.837 45.2108 45.6723Z" stroke="#61B75A" stroke-width="5" stroke-linejoin="round"/>
</svg>
