<svg width="60" height="48" viewBox="0 0 60 48" fill="none" xmlns="http://www.w3.org/2000/svg">
<path d="M2 17.5896V15.5896C1.36366 15.5896 0.765304 15.8924 0.388451 16.4052C0.0115984 16.9179 -0.0987661 17.5794 0.0912089 18.1867L2 17.5896ZM57.33 17.5896L59.2407 18.1806C59.4284 17.5737 59.3167 16.9138 58.9397 16.4026C58.5627 15.8913 57.9652 15.5896 57.33 15.5896V17.5896ZM48.5937 45.8354V47.8354C49.4706 47.8354 50.2453 47.2641 50.5044 46.4264L48.5937 45.8354ZM10.8356 45.8354L8.92679 46.4325C9.18789 47.2672 9.96102 47.8354 10.8356 47.8354V45.8354ZM14.6192 15.5896H2V19.5896H14.6192V15.5896ZM14.6192 19.5896H45.1962V15.5896H14.6192V19.5896ZM45.1962 19.5896H57.33V15.5896H45.1962V19.5896ZM55.4193 16.9986L46.683 45.2444L50.5044 46.4264L59.2407 18.1806L55.4193 16.9986ZM48.5937 43.8354H45.1962V47.8354H48.5937V43.8354ZM45.1962 43.8354H14.6192V47.8354H45.1962V43.8354ZM10.8356 47.8354H14.6192V43.8354H10.8356V47.8354ZM0.0912089 18.1867L8.92679 46.4325L12.7444 45.2383L3.90879 16.9925L0.0912089 18.1867Z" fill="#085723"/>
<path d="M46.4685 22.6104L39.3419 5.31115C38.5703 3.43807 36.7447 2.2157 34.7189 2.21566L29.665 2.21558L24.611 2.21566C22.5852 2.2157 20.7597 3.43807 19.988 5.31115L12.8615 22.6104" stroke="#085723" stroke-width="4" stroke-linecap="round"/>
</svg>
